<svg width="50" height="50" viewBox="0 0 50 50" fill="none" xmlns="http://www.w3.org/2000/svg">
<g clip-path="url(#clip0_2370_4688)">
<path d="M6.91689 5.14015L31.0217 3.33471C33.9478 3.05695 34.7141 3.26527 36.5951 4.58463L44.3282 10.001C45.5822 10.9037 46.0002 11.1814 46.0002 12.223V41.8739C46.0002 43.7488 45.3035 44.8598 42.9348 44.9987L14.9286 46.6653C13.1173 46.7347 12.2813 46.5264 11.3756 45.3459L5.73254 38.0547C4.68753 36.6659 4.26953 35.6938 4.26953 34.5133V8.12607C4.26953 6.59839 4.9662 5.27903 6.91689 5.14015Z" fill="white"/>
<path fill-rule="evenodd" clip-rule="evenodd" d="M31.0217 3.33471L6.91689 5.14015C4.9662 5.27903 4.26953 6.59839 4.26953 8.12607V34.5133C4.26953 35.6938 4.68753 36.7354 5.73254 38.0547L11.3756 45.4154C12.2813 46.5958 13.1869 46.8736 14.9286 46.7347L42.9348 45.0682C45.3035 44.9293 46.0002 43.8182 46.0002 41.9434V12.223C46.0002 11.2509 45.6519 10.9731 44.4675 10.1398C44.3979 10.0704 44.3282 10.0704 44.2585 10.001L36.5951 4.65407C34.7838 3.26527 34.0174 3.12639 31.0217 3.33471ZM15.5556 11.737C13.2566 11.8758 12.7689 11.9453 11.4453 10.8342L8.1709 8.26495C7.82256 7.91775 7.96189 7.50111 8.86757 7.43167L32.0668 5.76511C34.0174 5.62623 34.9928 6.25119 35.7591 6.87615L39.7302 9.72319C39.9392 9.79263 40.3572 10.2787 39.7998 10.2787L15.8343 11.737H15.5556ZM12.9083 41.6656V16.4589C12.9083 15.3478 13.2566 14.8618 14.2319 14.7923L41.7505 13.1952C42.6562 13.1258 43.0742 13.6813 43.0742 14.7923V39.7907C43.0742 40.9018 42.8652 41.8045 41.4022 41.8739L15.068 43.4016C13.6049 43.5405 12.9083 42.985 12.9083 41.6656ZM38.8941 17.8477C39.0335 18.6115 38.8941 19.3754 38.1278 19.4448L36.8738 19.7226V38.3325C35.7591 38.9574 34.7838 39.2352 33.9478 39.2352C32.6241 39.2352 32.2758 38.8186 31.2308 37.5686L22.8707 24.5139V37.0826L25.518 37.7075C25.518 37.7075 25.518 39.2352 23.428 39.2352L17.576 39.5824C17.4366 39.2352 17.576 38.4019 18.1333 38.263L19.666 37.8464V21.1808L17.576 20.9725C17.4366 20.2086 17.8546 19.0976 19.039 19.0282L25.309 18.6115L33.9478 31.8051V20.1392L31.7184 19.8614C31.5791 18.9587 32.2061 18.2643 33.0421 18.1949L38.8941 17.8477Z" fill="black"/>
</g>
<defs>
<clipPath id="clip0_2370_4688">
<rect width="41.7307" height="43.4695" fill="white" transform="translate(4.26953 3.26527)"/>
</clipPath>
</defs>
</svg>
