<svg width="50" height="50" viewBox="0 0 50 50" fill="none" xmlns="http://www.w3.org/2000/svg">
<g clip-path="url(#clip0_1716_1761)">
<rect width="50" height="50.0023" rx="25" fill="#F0F1F4"/>
<g clip-path="url(#clip1_1716_1761)">
<path d="M19.532 17.6914C18.6717 17.6914 18.0878 17.7751 17.7842 17.8607V23.3902C18.1462 23.4719 18.588 23.4992 19.1991 23.4992C21.451 23.4992 22.8407 22.3606 22.8407 20.4415C22.8387 18.721 21.6437 17.6914 19.532 17.6914Z" fill="black"/>
<path d="M39.9194 8H10.0825C8.93228 8 8 8.93033 8 10.0767V39.9116C8 41.0599 8.93228 41.9922 10.0825 41.9922H39.9194C41.0677 41.9922 42 41.0599 42 39.9116V10.0787C42 8.93033 41.0677 8 39.9194 8ZM25.3104 24.781C23.8682 26.1435 21.7253 26.7546 19.2282 26.7546C18.6696 26.7546 18.1714 26.7273 17.7821 26.6709V33.3701H13.5839V14.888C14.8899 14.668 16.7233 14.5007 19.31 14.5007C21.92 14.5007 23.7845 14.9989 25.0321 16.0013C26.233 16.9472 27.0368 18.5042 27.0368 20.3376C27.0368 22.171 26.4237 23.7222 25.3104 24.781ZM31.6379 33.6465C29.8551 33.6465 28.2727 33.2611 27.2431 32.7025L27.9924 29.674C28.771 30.1431 30.3845 30.6998 31.6379 30.6998C32.9127 30.6998 33.4421 30.256 33.4421 29.5592C33.4421 28.8663 33.0256 28.5335 31.4432 28.0041C28.6367 27.0602 27.5506 25.5304 27.5779 23.9188C27.5779 21.3925 29.7461 19.4696 33.1093 19.4696C34.6936 19.4696 36.1105 19.8335 36.9435 20.2481L36.1942 23.1676C35.583 22.8328 34.4172 22.391 33.2475 22.391C32.2218 22.391 31.6398 22.8075 31.6398 23.5023C31.6398 24.1407 32.1634 24.4735 33.8314 25.0594C36.4161 25.9469 37.5021 27.2548 37.5274 29.2517C37.5274 31.7838 35.5227 33.6465 31.6379 33.6465Z" fill="black"/>
</g>
</g>
<defs>
<clipPath id="clip0_1716_1761">
<rect width="50" height="50" fill="white"/>
</clipPath>
<clipPath id="clip1_1716_1761">
<rect x="8" y="8" width="34" height="34" rx="8" fill="white"/>
</clipPath>
</defs>
</svg>
