<svg width="50" height="50" viewBox="0 0 50 50" fill="none" xmlns="http://www.w3.org/2000/svg">
<g clip-path="url(#clip0_2632_3007)">
<rect width="50" height="50.0023" rx="25" fill="#F0F1F4"/>
<g clip-path="url(#clip1_2632_3007)">
<path fill-rule="evenodd" clip-rule="evenodd" d="M27.6537 17.4625C26.9037 17.8554 26.6245 18.5191 26.6245 20.352C26.6245 20.352 27.0042 19.9849 27.5675 19.7803C27.9782 19.632 28.329 19.4053 28.5315 19.257C29.1653 18.7926 29.2636 18.1951 29.2636 17.1885C29.2636 17.1885 28.2301 17.1606 27.6537 17.4625ZM23.2059 17.8919C22.5942 18.4309 22.4154 19.2903 22.4154 19.2903L20.3906 27.1357L18.7065 20.7145C18.5425 20.0319 18.2469 19.1883 17.7788 18.6176C17.1829 17.8908 15.9717 17.8451 15.8428 17.8451C15.7135 17.8451 14.5022 17.8908 13.9058 18.6176C13.4383 19.1883 13.1427 20.0319 12.9786 20.7145L11.2946 27.1357L9.2692 19.2903C9.2692 19.2903 9.09091 18.4309 8.47925 17.8919C7.48734 17.0178 6 17.2045 6 17.2045L9.87771 31.8659C9.87771 31.8659 11.1568 31.9585 11.7974 31.6319C12.6378 31.2038 13.038 30.8729 13.5471 28.8781C14.0005 27.0994 15.2685 21.8753 15.3869 21.5034C15.4458 21.3199 15.5199 20.8807 15.8428 20.8807C16.1721 20.8807 16.2404 21.3194 16.2978 21.5034C16.414 21.8758 17.6841 27.0994 18.138 28.8781C18.6471 30.8729 19.0468 31.2038 19.8878 31.6319C20.5279 31.9585 21.8069 31.8659 21.8069 31.8659L25.6846 17.2045C25.6846 17.2045 24.1978 17.0178 23.2059 17.8919ZM29.2623 19.598C29.2623 19.598 29.0199 19.9736 28.4661 20.2828C28.1111 20.4816 27.7697 20.6162 27.4037 20.7919C26.7905 21.0859 26.6243 21.4136 26.6243 21.9132V22.0804V22.8525V22.8736V23.0476V31.866C26.6243 31.866 27.603 31.9901 28.2431 31.6635C29.0667 31.2438 29.256 30.8388 29.2634 29.0154V20.1292L29.2623 20.1298V19.598ZM38.9279 24.5708L43.848 17.253C43.848 17.253 41.7716 16.8995 40.7434 17.8352C40.0855 18.4342 39.3497 19.5113 39.3497 19.5113L37.5394 22.121C37.4516 22.2567 37.3364 22.4045 37.1529 22.4045C36.9693 22.4045 36.8547 22.2567 36.7668 22.121L34.9566 19.5113C34.9566 19.5113 34.2208 18.4342 33.5628 17.8352C32.5346 16.8995 30.4583 17.253 30.4583 17.253L35.3778 24.5708L30.4709 31.866C30.4709 31.866 32.6335 32.1395 33.6617 31.2028C34.3197 30.6043 34.9566 29.6303 34.9566 29.6303L36.7668 27.0211C36.8547 26.8849 36.9693 26.7376 37.1529 26.7376C37.3364 26.7376 37.4516 26.8849 37.5394 27.0211L39.3497 29.6303C39.3497 29.6303 40.0234 30.6043 40.6813 31.2028C41.7101 32.1395 43.8348 31.866 43.8348 31.866L38.9279 24.5708Z" fill="black"/>
</g>
</g>
<defs>
<clipPath id="clip0_2632_3007">
<rect width="50" height="50" fill="white"/>
</clipPath>
<clipPath id="clip1_2632_3007">
<rect width="37.8672" height="15.2521" fill="white" transform="translate(6 17)"/>
</clipPath>
</defs>
</svg>
